<svg width="24" height="24" viewBox="0 0 24 24" fill="none" xmlns="http://www.w3.org/2000/svg">
<path fill-rule="evenodd" clip-rule="evenodd" d="M7.15212 0.720082C5.85612 0.864082 5.37612 0.960082 4.75212 1.10408C3.98412 1.29608 3.26412 1.58408 2.78412 1.92008C2.06412 2.35208 1.58412 3.12008 1.29612 3.98408C1.10412 4.60808 1.00812 5.04008 0.864119 6.57608L0.720119 7.63208V9.74408V11.8561H0.81612C0.86412 11.8561 1.20012 11.8081 1.53612 11.8081C3.64812 11.7121 4.65612 11.6641 6.00012 11.3761C7.58412 11.1361 8.64012 10.7041 9.45612 10.0801C9.74412 9.84008 10.1761 9.36008 10.4641 9.07208C10.7041 8.73608 11.0401 8.06408 11.1841 7.63208C11.5681 6.62408 11.6161 5.80808 11.8561 2.49608C11.9041 1.68008 11.9521 0.912082 12.0001 0.864082V0.720082H9.84012C7.82412 0.672082 7.53612 0.672082 7.15212 0.720082ZM12.0961 0.720082C12.0961 0.864082 12.2401 2.88008 12.2401 3.40808C12.3841 5.42408 12.6241 6.81608 12.9601 7.77608C13.2001 8.44808 13.5841 9.07208 14.0161 9.60008C14.4961 10.1761 15.3121 10.7041 16.1281 11.0401C17.0401 11.3761 18.0961 11.5201 20.6881 11.7121C21.4561 11.7601 22.0801 11.8081 23.0401 11.8561H23.2801V11.4241C23.3281 10.7041 23.2801 8.25608 23.2321 7.63208C23.1361 6.91208 23.0881 6.04808 22.9441 5.32808C22.8001 4.36808 22.7041 3.98408 22.4161 3.40808C21.8881 2.30408 20.8801 1.53608 19.5361 1.24808C19.0561 1.10408 18.5281 1.05608 17.3761 0.912082C17.0881 0.864082 16.7041 0.816082 16.5601 0.768082C16.2721 0.720082 16.1281 0.720082 14.2081 0.720082C12.2401 0.672082 12.0961 0.672082 12.0961 0.720082ZM0.672119 14.1121V16.1281L0.81612 17.1361C1.00812 18.7201 1.10412 19.2961 1.29612 19.9201C1.68012 21.0241 2.25612 21.7921 3.16812 22.3201C3.50412 22.5121 3.88812 22.6561 4.56012 22.8001C5.42412 22.9921 5.85612 23.0881 6.72012 23.1361C8.06412 23.2321 11.7601 23.3281 11.8081 23.3281C11.8081 23.3281 11.8081 22.7521 11.8081 22.0801C11.8081 21.0241 11.8081 20.7841 11.7601 20.2081C11.6161 18.2881 11.3761 17.1841 11.1361 16.3681C10.5121 14.4961 9.21612 13.2961 7.24812 12.7681C6.52812 12.5761 5.56812 12.4801 3.55212 12.3361C2.25612 12.2401 1.87212 12.1921 1.29612 12.1921C1.05612 12.1441 0.86412 12.1441 0.81612 12.1441H0.720119V14.1121H0.672119ZM22.9921 12.1441C22.8961 12.1441 22.5601 12.1921 22.2721 12.1921C21.9361 12.2401 21.2641 12.2881 20.7841 12.2881C18.0001 12.4321 16.9441 12.6241 16.0321 13.0081C14.1601 13.7281 13.0561 15.1681 12.6721 17.4241C12.5281 18.1441 12.4801 18.8161 12.3361 20.3041C12.2401 21.1681 12.2401 21.4081 12.2401 22.3201V23.3281H14.1601C16.0321 23.3281 16.4161 23.2801 17.3281 23.1841C18.3361 23.0881 19.4881 22.8481 20.1121 22.6561C21.4081 22.2241 22.2721 21.3601 22.6561 20.1121C22.8001 19.5841 23.0401 18.5761 23.1361 17.7121C23.2801 16.6081 23.2801 15.8401 23.2801 13.7761V12.1441H23.1841C23.1841 12.1441 23.0881 12.1441 22.9921 12.1441Z"/>
</svg>
