<svg width="16" height="26" viewBox="0 0 16 26" fill="none" xmlns="http://www.w3.org/2000/svg">
<path d="M7.99997 13.1441C11.36 13.1441 14.096 10.4081 14.096 7.04815C14.096 3.68815 11.408 0.952148 7.99997 0.952148C4.59197 0.952148 1.90397 3.68815 1.90397 7.04815C1.90397 10.4081 4.63997 13.1441 7.99997 13.1441ZM7.99997 4.07215C9.67997 4.07215 10.976 5.41615 10.976 7.04815C10.976 8.72815 9.63197 10.0241 7.99997 10.0241C6.31997 10.0241 5.02397 8.68015 5.02397 7.04815C5.02397 5.36815 6.36797 4.07215 7.99997 4.07215ZM15.056 13.9121C14.72 13.1921 13.76 12.6641 12.464 13.6721C10.784 15.0161 8.04797 15.0161 8.04797 15.0161C8.04797 15.0161 5.26397 15.0161 3.58397 13.6721C2.33597 12.6641 1.32797 13.2401 0.991967 13.9121C0.367967 15.1601 1.08797 15.6881 2.62397 16.6961C3.91997 17.5121 5.74397 17.8481 6.89597 17.9441L5.93597 18.9041C4.59197 20.2481 3.24797 21.5921 2.33597 22.5041C1.80797 23.0321 1.80797 23.9441 2.33597 24.4721L2.52797 24.6641C3.05597 25.1921 3.96797 25.1921 4.49597 24.6641L8.09597 21.0641C9.43997 22.4081 10.784 23.7521 11.696 24.6641C12.224 25.1921 13.136 25.1921 13.664 24.6641L13.856 24.4721C14.384 23.9441 14.384 23.0321 13.856 22.5041L10.256 18.9041L9.29597 17.9441C10.448 17.8001 12.224 17.5121 13.568 16.6961C15.008 15.6881 15.632 15.1121 15.056 13.9121Z"/>
</svg>
