<svg width="22" height="18" viewBox="0 0 22 18" fill="none" xmlns="http://www.w3.org/2000/svg">
<path d="M19.6879 0.455812C19.6879 0.455812 21.6079 -0.312188 21.4639 1.55981C21.4159 2.32781 20.9359 4.96781 20.5519 7.79981L19.2559 16.1998C19.2559 16.1998 19.1119 17.4478 18.1519 17.6398C17.1919 17.8318 15.7039 16.8718 15.4639 16.6798C15.2719 16.5358 11.4319 14.0878 10.1359 12.9358C9.75191 12.5998 9.31991 11.9758 10.1839 11.2078L15.7999 5.83181C16.4239 5.20781 17.0959 3.67181 14.4079 5.49581L6.91991 10.6318C6.91991 10.6318 6.05591 11.1598 4.47191 10.6798L0.919906 9.57581C0.919906 9.57581 -0.376094 8.75981 1.83191 7.94381C7.20791 5.44781 13.8319 2.85581 19.6879 0.455812Z"/>
</svg>
