<svg width="22" height="24" viewBox="0 0 22 24" fill="none" xmlns="http://www.w3.org/2000/svg">
<path fill-rule="evenodd" clip-rule="evenodd" d="M11.384 0.768029C16.088 0.816029 18.392 2.20803 18.92 2.68803C20.648 4.17603 21.512 7.77603 20.888 12.96C20.312 17.568 17.288 18.24 16.136 18.528C15.992 18.576 15.896 18.576 15.848 18.624C15.56 18.72 12.824 19.392 9.46396 19.2C9.46396 19.2 6.91996 22.272 6.10396 23.04C5.95996 23.184 5.81596 23.184 5.71996 23.184C5.57596 23.136 5.57596 22.992 5.57596 22.752C5.57596 22.416 5.62396 18.576 5.62396 18.576C0.775964 17.232 0.919965 12.336 0.967965 9.60003C0.967965 9.50403 0.967965 9.40803 0.967965 9.31203C1.01596 6.62403 1.54396 4.41603 3.07996 2.88003C5.76796 0.432029 11.384 0.768029 11.384 0.768029ZM10.856 3.45603C10.664 3.45603 10.472 3.60003 10.472 3.84003C10.472 4.08003 10.616 4.22403 10.856 4.22403C12.536 4.22403 13.928 4.80003 14.984 5.85603C16.04 6.91203 16.664 8.40003 16.664 10.32C16.664 10.512 16.808 10.704 17.048 10.704C17.24 10.704 17.432 10.56 17.432 10.32C17.432 8.20803 16.808 6.57603 15.56 5.32803C14.216 4.03203 12.68 3.45603 10.856 3.45603ZM10.904 5.42403C10.904 5.18403 11.144 4.99203 11.384 4.99203C12.728 5.08803 13.832 5.56803 14.648 6.43203C15.464 7.29603 15.8 8.40003 15.8 9.64803C15.8 9.88803 15.608 10.08 15.32 10.08C15.08 10.08 14.888 9.88803 14.888 9.60003C14.936 8.54403 14.6 7.72803 14.024 7.00803C13.4 6.33603 12.536 5.95203 11.384 5.85603C11.096 5.85603 10.904 5.66403 10.904 5.42403ZM11.48 7.10403C11.48 6.91203 11.672 6.72003 11.864 6.72003C12.488 6.76803 13.064 6.96003 13.496 7.34403C13.88 7.72803 14.12 8.30403 14.12 8.97603C14.12 9.16803 13.976 9.36003 13.736 9.36003C13.544 9.36003 13.352 9.21603 13.352 8.97603C13.304 8.40003 13.16 8.06403 12.968 7.82403C12.728 7.58403 12.344 7.44003 11.864 7.39203C11.624 7.48803 11.48 7.29603 11.48 7.10403ZM11.912 13.296C11.912 13.296 12.344 13.344 12.584 13.056L13.064 12.432C13.304 12.144 13.832 11.952 14.36 12.288C14.744 12.528 15.176 12.768 15.512 13.008C15.8 13.2 16.328 13.632 16.52 13.824C16.568 13.872 16.616 13.92 16.616 13.92C17 14.208 17.048 14.64 16.808 15.072C16.568 15.504 16.184 15.936 15.848 16.272C15.512 16.56 15.224 16.704 14.888 16.752C14.84 16.752 14.792 16.752 14.744 16.752C14.6 16.752 14.456 16.704 14.36 16.656C13.88 16.512 13.016 16.176 11.672 15.408C10.856 14.976 10.088 14.496 9.36796 13.92C8.98396 13.632 8.69596 13.296 8.35996 13.008L8.31197 12.96L8.16796 12.912L8.11997 12.864C8.11997 12.864 8.11997 12.864 8.07197 12.816C7.73597 12.48 7.44796 12.144 7.15997 11.808C6.58396 11.088 6.05597 10.32 5.67197 9.50403C4.90397 8.16003 4.56796 7.29603 4.42396 6.81603C4.37596 6.67203 4.32796 6.52803 4.32796 6.43203C4.32796 6.38403 4.32796 6.33603 4.32796 6.28803C4.37596 5.95203 4.51996 5.66403 4.80796 5.28003C5.19196 4.89603 5.57596 4.56003 6.00796 4.32003C6.43996 4.08003 6.87196 4.17603 7.15997 4.51203C7.15997 4.51203 7.78396 5.23203 8.02396 5.61603C8.31196 6.00003 8.55196 6.38403 8.74396 6.76803C9.03196 7.29603 8.88796 7.87203 8.59997 8.06403L7.97597 8.54403C7.68797 8.78403 7.73597 9.21603 7.73597 9.21603C7.73597 9.21603 8.64797 12.48 11.912 13.296Z"/>
</svg>
