<svg width="20" height="20" viewBox="0 0 20 20" fill="none" xmlns="http://www.w3.org/2000/svg">
<path fill-rule="evenodd" clip-rule="evenodd" d="M10.0001 0.160156C12.5921 0.160156 15.0401 1.16816 16.9121 3.04016C18.7361 4.91216 19.7921 7.31216 19.7921 9.95216C19.7921 15.3282 15.4241 19.6962 10.0481 19.6962C8.4161 19.6962 6.8321 19.3122 5.3921 18.4962L0.256104 19.8402L1.6481 14.8002C0.784102 13.3122 0.352103 11.6802 0.352103 9.95216C0.304103 4.52816 4.6721 0.160156 10.0001 0.160156ZM10.0001 17.9682C14.4641 17.9682 18.1121 14.3202 18.1121 9.85616C18.1121 7.69616 17.2481 5.68016 15.7601 4.14416C14.2241 2.60816 12.2081 1.79216 10.0481 1.79216C5.5841 1.79216 1.9361 5.44016 1.9361 9.90415C1.9361 11.4402 2.3681 12.9282 3.1841 14.2242L3.3761 14.5602L2.5601 17.4882L5.6321 16.7202L5.9201 16.9122C7.1681 17.5842 8.5601 17.9682 10.0001 17.9682ZM12.7841 11.1042C12.9761 11.1522 14.2241 11.7762 14.4641 11.8722C14.5121 11.9202 14.5601 11.9202 14.6081 11.9202C14.8001 11.9682 14.8961 12.0642 14.9441 12.1122C14.9921 12.2082 14.9921 12.6882 14.8001 13.2642C14.6081 13.8402 13.6001 14.3202 13.1681 14.4162C12.7361 14.4642 12.2081 14.4642 11.6321 14.3202C11.2961 14.2242 10.8161 14.0802 10.2401 13.8402C7.9361 12.8322 6.4001 10.6722 6.1121 10.2402C6.0641 10.1922 6.0641 10.1922 6.0641 10.1922C5.9201 10.0002 5.0561 8.84816 5.0561 7.69616C5.0561 6.59216 5.5841 5.96815 5.8241 5.72816C5.8241 5.68016 5.8721 5.68016 5.8721 5.68016C6.0641 5.44016 6.3521 5.34416 6.4961 5.34416C6.6401 5.34416 6.8321 5.34416 6.9761 5.34416H7.0241C7.1681 5.34416 7.3601 5.34416 7.5041 5.77616C7.5521 5.96816 7.6961 6.16016 7.7921 6.40016C7.9841 6.88016 8.2241 7.45616 8.2721 7.55216C8.3201 7.64816 8.3681 7.79216 8.3201 7.98416C8.3201 8.03216 8.2721 8.03216 8.2721 8.03216C8.2241 8.12816 8.1761 8.22415 8.0801 8.36815C8.0321 8.41615 8.0321 8.46416 7.9841 8.51216C7.9361 8.60816 7.7921 8.70416 7.7441 8.80016C7.6481 8.89616 7.5041 9.04016 7.6481 9.28016C7.7921 9.52016 8.2721 10.3362 8.9921 10.9602C9.7601 11.6322 10.4801 11.9682 10.7681 12.1122C10.8161 12.1602 10.8641 12.1602 10.9601 12.1602C11.2001 12.2562 11.3441 12.2562 11.4881 12.1122C11.6321 11.9202 12.1121 11.3922 12.2561 11.1522C12.4001 11.0082 12.5921 11.0562 12.7841 11.1042Z"/>
</svg>
